# xmcd
#
# Track frame offsets: 
#        150
#        16775
#        31170
#        52400
#        67920
#        90287
#        104137
#        117062
#        135975
#        150595
#        172025
#        188670
#        205480
#        218287
#        237382
#        251722
#        265810
#
# Disc length: 3820 seconds
#
# Revision: 0
# Processed by: cddbd v1.5.1PL0 Copyright (c) Steve Scherf et al.
# Submitted via: ExactAudioCopy v0.90b4
#
DISCID=e20eea11
DTITLE=Erik Trauner - Up Slide Down
DYEAR=1995
DGENRE=Blues
TTITLE0=Liquor Store Blues
TTITLE1=Give Me some Of Your Sugar
TTITLE2=My Baby Turned Sour On Me
TTITLE3=I'm A Fool And I'm A Beggar
TTITLE4=The Fisherman
TTITLE5=Preachin' Blues
TTITLE6=Love Me, Love Me
TTITLE7=It Makes No Difference
TTITLE8=Ooee, Baby It's Alright
TTITLE9=Special Kind Of Angel
TTITLE10=Amazing Grace
TTITLE11=Get Right Church
TTITLE12=Gotta Get The Gettin'
TTITLE13=When I First Met You
TTITLE14=Movin' Train
TTITLE15=Churchyard Waltz
TTITLE16=Last Night's Dream
EXTD=
EXTT0=
EXTT1=
EXTT2=
EXTT3=
EXTT4=
EXTT5=
EXTT6=
EXTT7=
EXTT8=
EXTT9=
EXTT10=
EXTT11=
EXTT12=
EXTT13=
EXTT14=
EXTT15=
EXTT16=
PLAYORDER=
